#!OML:ASF I:\Random Stuff\random\construction\7_22_03\Session 2\subj1.ASF
:FULLY-SPECIFIED
:DEGREES
1738
root 15.3869 17.3909 -2.80651 7.15139 -128.49 6.18956
lowerback 9.1938 2.53912 2.09885
upperback 0.640393 3.4467 -1.99962
thorax -4.23496 1.62943 -3.69202
lowerneck -18.1927 15.0823 11.6521
upperneck 35.9747 18.8668 -4.03874
head 18.0047 8.28586 0.211507
rclavicle 4.49253e-014 1.59028e-015
rhumerus -28.4902 44.4816 -81.8393
rradius 89.8445
rwrist -38.9102
rhand 14.0847 11.056
rfingers 7.12502
rthumb 38.9894 -14.4671
lclavicle 4.49253e-014 1.59028e-015
lhumerus -1.82603 -3.2574 81.8486
lradius 73.7209
lwrist 87.4076
lhand -3.93261 53.752
lfingers 7.12502
lthumb 21.8187 442.542
rfemur -17.253 -0.861317 26.37
rtibia 25.309
rfoot -16.4702 -13.1197
rtoes -12.3341
lfemur -34.2793 -7.50721 -2.72438
ltibia 29.7756
lfoot -14.1048 9.79768
ltoes -49.3557
1739
root 15.2743 17.387 -2.74817 7.19962 -129.242 6.58439
lowerback 9.31239 2.60851 1.84566
upperback 0.612696 3.51176 -2.00649
thorax -4.33998 1.66291 -3.57276
lowerneck -18.1426 15.1289 11.5299
upperneck 36.0018 19.0603 -4.26248
head 18.0465 8.30713 0.173423
rclavicle 3.97569e-015 1.51076e-014
rhumerus -29.1074 44.2128 -82.5553
rradius 89.7993
rwrist -35.0231
rhand 11.0343 11.1261
rfingers 7.12502
rthumb 36.1067 -15.1641
lclavicle 3.97569e-015 1.51076e-014
lhumerus -2.43032 -4.19954 81.1505
lradius 72.4903
lwrist 86.2237
lhand -6.1391 55.7701
lfingers 7.12502
lthumb 19.6986 444.792
rfemur -17.4415 -0.664816 26.2113
rtibia 25.1767
rfoot -16.4665 -12.6815
rtoes -12.9105
lfemur -34.2249 -7.26723 -2.78788
ltibia 30.0043
lfoot -12.2819 5.31083
ltoes -38.9414
1740
root 15.1621 17.3859 -2.69046 7.33966 -130.092 6.89001
lowerback 9.41808 2.72418 1.48586
upperback 0.59048 3.62238 -2.06224
thorax -4.43298 1.72055 -3.44968
lowerneck -17.9385 15.1199 11.4095
upperneck 35.8443 19.1371 -4.40969
head 17.9234 8.31227 0.122596
rclavicle 6.55989e-015 4.77083e-015
rhumerus -29.4917 43.9309 -83.2562
rradius 89.4949
rwrist -31.5253
rhand 8.66919 11.2838
rfingers 7.12502
rthumb 33.863 -15.5303
lclavicle 6.55989e-015 4.77083e-015
lhumerus -3.05205 -5.3406 80.4153
lradius 71.3028
lwrist 84.7632
lhand -8.21992 58.4208
lfingers 7.12502
lthumb 17.6972 447.635
rfemur -17.6392 -0.199529 25.9769
rtibia 25.0205
rfoot -16.374 -12.4244
rtoes -13.8809
lfemur -34.2689 -7.01135 -2.8843
ltibia 30.2848
lfoot -13.144 4.68412
ltoes -41.6875
1741
root 15.0545 17.3915 -2.6329 7.53842 -130.929 7.10216
lowerback 9.61924 2.82623 0.96649
upperback 0.584477 3.69402 -2.12171
thorax -4.5759 1.76048 -3.24205
lowerneck -17.7961 15.3258 11.6953
upperneck 35.8256 19.5098 -4.81648
head 18.0327 8.43594 -0.00842682
rclavicle 4.37326e-015 6.59965e-014
rhumerus -29.64 43.7812 -83.8943
rradius 89.0183
rwrist -29.1966
rhand 6.63865 11.3961
rfingers 7.12502
rthumb 31.9317 -15.8236
lclavicle 4.37326e-015 6.59965e-014
lhumerus -3.66997 -6.38629 79.718
lradius 70.2707
lwrist 83.554
lhand -9.83416 60.3796
lfingers 7.12502
lthumb 16.1433 449.727
rfemur -17.8271 0.377824 25.6875
rtibia 24.8495
rfoot -16.2065 -12.3223
rtoes -14.9749
lfemur -34.4282 -6.6649 -3.04875
ltibia 30.5603
lfoot -12.6606 5.35357
ltoes -41.4194
1742
root 14.9505 17.3998 -2.57661 7.83086 -131.697 7.20281
lowerback 9.86119 2.89314 0.26121
upperback 0.608833 3.69289 -2.18003
thorax -4.72683 1.76773 -2.92167
lowerneck -17.6349 15.3226 11.6415
upperneck 35.4661 19.629 -5.12904
head 17.8527 8.455 -0.127444
rclavicle -7.39479e-014 -3.26007e-014
rhumerus -29.604 43.8691 -84.5013
rradius 88.4655
rwrist -28.09
rhand 4.84968 11.2539
rfingers 7.12502
rthumb 30.2266 -16.2921
lclavicle -7.39479e-014 -3.26007e-014
lhumerus -4.1007 -7.24705 79.0683
lradius 69.101
lwrist 82.707
lhand -11.1403 61.9912
lfingers 7.12502
lthumb 14.8853 628.564
rfemur -18.0132 0.914032 25.3232
rtibia 24.6381
rfoot -16.0719 -12.2095
rtoes -15.4623
lfemur -34.5968 -6.24837 -3.32393
ltibia 30.8308
lfoot -12.3852 6.05536
ltoes -41.3161
1743
root 14.8438 17.4077 -2.52406 8.16079 -132.498 7.20296
lowerback 10.1161 3.02171 -0.520454
upperback 0.67669 3.75224 -2.32085
thorax -4.83669 1.80495 -2.6523
lowerneck -17.6117 15.3749 11.7695
upperneck 35.3269 19.7222 -5.33326
head 17.8365 8.48408 -0.212807
rclavicle 2.42517e-014 5.56597e-015
rhumerus -29.6015 44.0069 -85.2345
rradius 87.942
rwrist -27.34
rhand 3.00192 10.9243
rfingers 7.12502
rthumb 28.4624 -16.9306
lclavicle 2.42517e-014 5.56597e-015
lhumerus -4.23666 -8.35142 78.4531
lradius 67.4295
lwrist 81.5029
lhand -12.6987 62.7121
lfingers 7.12502
lthumb 13.3836 627.738
rfemur -18.1265 1.4446 24.8673
rtibia 24.3666
rfoot -15.9973 -12.0348
rtoes -15.96
lfemur -34.6893 -5.7553 -3.73268
ltibia 31.1376
lfoot -12.1435 6.75106
ltoes -41.1418
1744
root 14.7359 17.4169 -2.47054 8.41386 -133.201 7.22925
lowerback 10.4744 3.15623 -1.19738
upperback 0.769992 3.818 -2.51133
thorax -4.96847 1.84093 -2.50083
lowerneck -17.4241 15.3665 12.0138
upperneck 34.8702 19.7791 -5.77202
head 17.6615 8.50661 -0.440014
rclavicle -1.39149e-014 -1.21656e-013
rhumerus -29.664 44.2423 -86.0964
rradius 87.437
rwrist -25.7994
rhand 0.932018 10.9186
rfingers 7.12502
rthumb 26.4828 -17.2509
lclavicle -1.39149e-014 -1.21656e-013
lhumerus -4.164 -9.63234 77.8878
lradius 65.5084
lwrist 80.2043
lhand -13.2794 63.2872
lfingers 7.12502
lthumb 12.8238 627.127
rfemur -18.1465 1.97673 24.4132
rtibia 24.0239
rfoot -15.8758 -11.9541
rtoes -16.8511
lfemur -34.7971 -5.11628 -4.23044
ltibia 31.5046
lfoot -12.1706 7.03516
ltoes -41.3288
1745
root 14.6273 17.4249 -2.41302 8.56824 -133.732 7.4276
lowerback 10.8496 3.22459 -1.65219
upperback 0.884168 3.81711 -2.69082
thorax -5.07614 1.83953 -2.45334
lowerneck -17.2934 15.3726 12.1637
upperneck 34.5059 19.8248 -6.05466
head 17.5102 8.52811 -0.583414
rclavicle -1.39149e-013 9.54166e-015
rhumerus -29.6513 44.6505 -87.0181
rradius 86.8672
rwrist -23.1712
rhand -1.10363 11.3138
rfingers 7.12502
rthumb 24.5329 -17.1346
lclavicle -1.39149e-013 9.54166e-015
lhumerus -3.93349 -10.733 77.3766
lradius 63.6075
lwrist 79.4442
lhand -14.4007 63.4755
lfingers 7.12502
lthumb 11.7427 626.874
rfemur -18.1583 2.44547 24.0727
rtibia 23.5987
rfoot -15.6449 -11.9067
rtoes -17.347
lfemur -35.0196 -4.48166 -4.63981
ltibia 31.9222
lfoot -12.147 7.15854
ltoes -41.1556
1746
root 14.5224 17.4321 -2.35526 8.73946 -134.227 7.78398
lowerback 11.0812 3.29931 -1.99971
upperback 1.00883 3.84293 -2.84763
thorax -5.08625 1.85052 -2.43659
lowerneck -18.119 15.414 11.6358
upperneck 35.0318 19.7724 -5.44728
head 17.8022 8.4654 -0.196473
rclavicle 1.51076e-014 -1.59028e-015
rhumerus -29.5157 45.0817 -87.8974
rradius 86.3067
rwrist -20.5091
rhand -2.80452 11.4881
rfingers 7.12502
rthumb 22.9016 -17.1718
lclavicle 1.51076e-014 -1.59028e-015
lhumerus -3.56281 -11.6402 76.9874
lradius 61.7739
lwrist 78.9619
lhand -9.79234 65.062
lfingers 7.12502
lthumb 16.1836 625.594
rfemur -18.2907 2.92828 23.8532
rtibia 23.0955
rfoot -15.284 -11.8756
rtoes -17.8016
lfemur -35.4207 -3.86868 -4.89297
ltibia 32.3691
lfoot -12.1368 7.31952
ltoes -40.8798
1747
root 14.4222 17.4422 -2.30062 8.92126 -134.767 8.17692
lowerback 11.2701 3.41449 -2.36774
upperback 1.13991 3.92015 -2.99361
thorax -5.06701 1.88689 -2.40228
lowerneck -18.4171 15.4822 11.349
upperneck 35.0554 19.8581 -5.23789
head 17.8157 8.48233 -0.0237284
rclavicle 1.35174e-014 8.5875e-014
rhumerus -29.3462 45.5215 -88.715
rradius 85.8775
rwrist -18.9818
rhand -4.06262 11.2286
rfingers 7.12502
rthumb 21.6938 -17.5759
lclavicle 1.35174e-014 8.5875e-014
lhumerus -3.17917 -12.4533 76.7301
lradius 60.2386
lwrist 78.4099
lhand -9.6138 65.7733
lfingers 7.12502
lthumb 16.3555 624.896
rfemur -18.4575 3.44632 23.6754
rtibia 22.5504
rfoot -14.8935 -11.835
rtoes -18.5502
lfemur -35.8356 -3.20301 -5.10906
ltibia 32.8091
lfoot -12.2925 7.49693
ltoes -41.027
1748
root 14.3237 17.4571 -2.245 9.21234 -135.171 8.43172
lowerback 11.5244 3.46721 -2.79139
upperback 1.27414 3.8987 -3.16087
thorax -5.08515 1.87369 -2.34862
lowerneck -17.8457 15.3927 11.462
upperneck 34.0248 19.9314 -5.91581
head 17.266 8.51513 -0.369968
rclavicle -6.12257e-014 1.06549e-013
rhumerus -29.1586 46.0379 -89.5286
rradius 85.6225
rwrist -18.4854
rhand -5.10635 10.7444
rfingers 7.12502
rthumb 20.6912 -18.1726
lclavicle -6.12257e-014 1.06549e-013
lhumerus -2.75527 -13.2763 76.4295
lradius 58.9061
lwrist 77.5293
lhand -10.9374 66.3734
lfingers 7.12502
lthumb 15.0808 624.196
rfemur -18.6467 3.79097 23.4058
rtibia 22.0097
rfoot -14.5433 -11.7316
rtoes -18.9768
lfemur -36.2987 -2.68509 -5.40725
ltibia 33.2152
lfoot -12.6056 7.60666
ltoes -41.3183
